<svg width="14" height="14" viewBox="0 0 14 14" fill="none" xmlns="http://www.w3.org/2000/svg">
<g clip-path="url(#clip0_30040_2111)">
<path d="M13.4492 8.77891L12.4258 7.90391C12.4742 7.60703 12.4992 7.30391 12.4992 7.00078C12.4992 6.69766 12.4742 6.39453 12.4258 6.09766L13.4492 5.22266C13.5264 5.15657 13.5817 5.06856 13.6076 4.97031C13.6336 4.87206 13.629 4.76824 13.5945 4.67266L13.5805 4.63203C13.2987 3.84457 12.8768 3.11459 12.3352 2.47734L12.307 2.44453C12.2413 2.36727 12.1537 2.31173 12.0558 2.28523C11.9579 2.25873 11.8543 2.26252 11.7586 2.29609L10.4883 2.74766C10.0195 2.36328 9.4961 2.06016 8.93047 1.84766L8.68516 0.519531C8.66665 0.419597 8.61818 0.32766 8.54617 0.255934C8.47416 0.184208 8.38204 0.136089 8.28203 0.117969L8.23985 0.110156C7.42579 -0.0367187 6.56953 -0.0367187 5.75547 0.110156L5.71328 0.117969C5.61328 0.136089 5.52115 0.184208 5.44915 0.255934C5.37714 0.32766 5.32867 0.419597 5.31016 0.519531L5.06328 1.85391C4.50217 2.06645 3.97964 2.36941 3.51641 2.75078L2.23672 2.29609C2.14104 2.26225 2.03733 2.25833 1.93937 2.28484C1.84141 2.31136 1.75383 2.36705 1.68828 2.44453L1.66016 2.47734C1.11914 3.11504 0.697309 3.8449 0.414847 4.63203L0.400784 4.67266C0.330472 4.86797 0.388284 5.08672 0.546097 5.22266L1.58203 6.10703C1.5336 6.40078 1.51016 6.70078 1.51016 6.99922C1.51016 7.29922 1.5336 7.59922 1.58203 7.89141L0.546097 8.77578C0.468903 8.84187 0.413654 8.92988 0.387697 9.02813C0.36174 9.12637 0.366305 9.23019 0.400784 9.32578L0.414847 9.36641C0.697659 10.1539 1.11641 10.8805 1.66016 11.5211L1.68828 11.5539C1.75399 11.6312 1.84157 11.6867 1.93948 11.7132C2.03738 11.7397 2.14101 11.7359 2.23672 11.7023L3.51641 11.2477C3.98204 11.6305 4.50235 11.9336 5.06328 12.1445L5.31016 13.4789C5.32867 13.5788 5.37714 13.6708 5.44915 13.7425C5.52115 13.8142 5.61328 13.8623 5.71328 13.8805L5.75547 13.8883C6.57701 14.0359 7.41831 14.0359 8.23985 13.8883L8.28203 13.8805C8.38204 13.8623 8.47416 13.8142 8.54617 13.7425C8.61818 13.6708 8.66665 13.5788 8.68516 13.4789L8.93047 12.1508C9.49587 11.9388 10.0223 11.6347 10.4883 11.2508L11.7586 11.7023C11.8543 11.7362 11.958 11.7401 12.0559 11.7136C12.1539 11.6871 12.2415 11.6314 12.307 11.5539L12.3352 11.5211C12.8789 10.8789 13.2977 10.1539 13.5805 9.36641L13.5945 9.32578C13.6648 9.13359 13.607 8.91484 13.4492 8.77891ZM11.3164 6.28203C11.3555 6.51797 11.3758 6.76016 11.3758 7.00234C11.3758 7.24453 11.3555 7.48672 11.3164 7.72266L11.2133 8.34922L12.3805 9.34766C12.2035 9.7553 11.9802 10.1412 11.7148 10.4977L10.2648 9.98359L9.77422 10.3867C9.40079 10.693 8.98516 10.9336 8.53516 11.1023L7.93985 11.3258L7.66016 12.8414C7.21886 12.8914 6.77333 12.8914 6.33203 12.8414L6.05235 11.3227L5.46172 11.0961C5.01641 10.9273 4.60235 10.6867 4.23203 10.382L3.74141 9.97734L2.28203 10.4961C2.01641 10.1383 1.79453 9.75234 1.61641 9.34609L2.7961 8.33828L2.69453 7.71328C2.65703 7.48047 2.63672 7.23984 2.63672 7.00234C2.63672 6.76328 2.65547 6.52422 2.69453 6.29141L2.7961 5.66641L1.61641 4.65859C1.79297 4.25078 2.01641 3.86641 2.28203 3.50859L3.74141 4.02734L4.23203 3.62266C4.60235 3.31797 5.01641 3.07734 5.46172 2.90859L6.05391 2.68516L6.3336 1.16641C6.77266 1.11641 7.2211 1.11641 7.66172 1.16641L7.94141 2.68203L8.53672 2.90547C8.98516 3.07422 9.40235 3.31484 9.77579 3.62109L10.2664 4.02422L11.7164 3.51016C11.982 3.86797 12.2039 4.25391 12.382 4.66016L11.2148 5.65859L11.3164 6.28203ZM6.99922 4.09609C5.48047 4.09609 4.24922 5.32734 4.24922 6.84609C4.24922 8.36484 5.48047 9.59609 6.99922 9.59609C8.51797 9.59609 9.74922 8.36484 9.74922 6.84609C9.74922 5.32734 8.51797 4.09609 6.99922 4.09609ZM8.23672 8.08359C8.07441 8.24637 7.88152 8.37545 7.66914 8.4634C7.45677 8.55136 7.22909 8.59645 6.99922 8.59609C6.53203 8.59609 6.09297 8.41328 5.76172 8.08359C5.59895 7.92128 5.46987 7.72839 5.38191 7.51601C5.29396 7.30364 5.24886 7.07596 5.24922 6.84609C5.24922 6.37891 5.43203 5.93984 5.76172 5.60859C6.09297 5.27734 6.53203 5.09609 6.99922 5.09609C7.46641 5.09609 7.90547 5.27734 8.23672 5.60859C8.3995 5.7709 8.52858 5.9638 8.61653 6.17617C8.70449 6.38855 8.74958 6.61622 8.74922 6.84609C8.74922 7.31328 8.56641 7.75234 8.23672 8.08359Z" fill="#FC0006"/>
</g>
<defs>
<clipPath id="clip0_30040_2111">
<rect width="14" height="14" fill="white"/>
</clipPath>
</defs>
</svg>
