<svg width="36" height="36" viewBox="0 0 36 36" fill="none" xmlns="http://www.w3.org/2000/svg">
<rect width="36" height="36" rx="18" fill="black" fill-opacity="0.6"/>
<path d="M14.6068 10.6765H14.4282C14.5264 10.6765 14.6068 10.5961 14.6068 10.4979V10.6765H21.3925V10.4979C21.3925 10.5961 21.4729 10.6765 21.5711 10.6765H21.3925V12.2836H22.9997V10.4979C22.9997 9.70996 22.359 9.06934 21.5711 9.06934H14.4282C13.6403 9.06934 12.9997 9.70996 12.9997 10.4979V12.2836H14.6068V10.6765ZM25.8568 12.2836H10.1425C9.74742 12.2836 9.42822 12.6028 9.42822 12.9979V13.7122C9.42822 13.8104 9.50858 13.8908 9.60679 13.8908H10.955L11.5063 25.5649C11.5421 26.326 12.1715 26.9265 12.9327 26.9265H23.0666C23.83 26.9265 24.4572 26.3283 24.493 25.5649L25.0443 13.8908H26.3925C26.4907 13.8908 26.5711 13.8104 26.5711 13.7122V12.9979C26.5711 12.6028 26.2519 12.2836 25.8568 12.2836ZM22.8947 25.3193H13.1046L12.5644 13.8908H23.4349L22.8947 25.3193Z" fill="white"/>
</svg>
