<svg width="17" height="18" viewBox="0 0 17 18" fill="none" xmlns="http://www.w3.org/2000/svg">
<path d="M15.3414 4.08301C15.3985 4.10368 15.4525 4.13171 15.5019 4.16635L15.519 4.17896C15.5344 4.18992 15.549 4.20191 15.5627 4.21482C15.579 4.22944 15.5946 4.24473 15.6095 4.26064C15.6987 4.35678 15.7572 4.47607 15.7779 4.60396C15.783 4.63717 15.7857 4.67104 15.7857 4.70557V14.0024C15.7857 14.1786 15.7138 14.3475 15.5857 14.472C15.4576 14.5965 15.2838 14.6665 15.1027 14.6665H2.80804C2.62688 14.6665 2.45315 14.5965 2.32506 14.472C2.19696 14.3475 2.125 14.1786 2.125 14.0024V4.70557C2.125 4.52945 2.19696 4.36054 2.32506 4.236C2.45315 4.11147 2.62688 4.0415 2.80804 4.0415H15.1027C15.1454 4.04157 15.1881 4.04546 15.2301 4.05312L15.2434 4.05578C15.255 4.05777 15.2663 4.06043 15.2775 4.06342L15.2926 4.06773C15.3069 4.07139 15.3213 4.07604 15.3353 4.08102L15.3414 4.08301ZM14.4196 6.06291L9.37474 9.87795C9.26448 9.9614 9.13054 10.01 8.991 10.0171C8.85145 10.0242 8.71302 9.98956 8.59437 9.91779L8.54724 9.88658L3.49107 6.22229V13.3384H14.4196V6.06291ZM13.1116 5.36963H4.60032L8.94648 8.51928L13.1116 5.36963Z" fill="#ABACB6"/>
</svg>
