<svg width="24" height="24" viewBox="0 0 24 24" fill="none" xmlns="http://www.w3.org/2000/svg">
<path fill-rule="evenodd" clip-rule="evenodd" d="M16 12C16 14.2091 14.2091 16 12 16C9.79086 16 8 14.2091 8 12C8 9.79086 9.79086 8 12 8C14.2091 8 16 9.79086 16 12ZM14.5 12C14.5 13.3807 13.3807 14.5 12 14.5C10.6193 14.5 9.5 13.3807 9.5 12C9.5 10.6193 10.6193 9.5 12 9.5C13.3807 9.5 14.5 10.6193 14.5 12Z" fill="#717179"/>
<path fill-rule="evenodd" clip-rule="evenodd" d="M22 12C22 13.8667 17.5228 19 12 19C6.47715 19 2 13.8667 2 12C2 10.1333 6.47715 5 12 5C17.5228 5 22 10.1333 22 12ZM20.5 12C20.5 11.9997 20.4998 12.0005 20.4995 12.0023C20.4927 12.034 20.4174 12.3858 19.974 13.0375C19.5532 13.6559 18.9173 14.3717 18.1076 15.0504C16.4725 16.4207 14.3019 17.5 12 17.5C9.69813 17.5 7.5275 16.4207 5.89244 15.0504C5.08268 14.3717 4.44681 13.6559 4.02602 13.0375C3.58262 12.3858 3.50733 12.034 3.50055 12.0023C3.50016 12.0005 3.5 11.9997 3.5 12C3.49991 12.0004 3.5 12.0001 3.5 12C3.50009 11.9996 3.50036 11.9986 3.50055 11.9977C3.50733 11.966 3.58262 11.6142 4.02602 10.9625C4.44681 10.3441 5.08268 9.62829 5.89244 8.94963C7.5275 7.57928 9.69813 6.5 12 6.5C14.3019 6.5 16.4725 7.57928 18.1076 8.94963C18.9173 9.62829 19.5532 10.3441 19.974 10.9625C20.4174 11.6142 20.4927 11.966 20.4995 11.9977C20.4998 11.9994 20.5 12.0003 20.5 12Z" fill="#717179"/>
</svg>
